<mxfile host="app.diagrams.net" modified="2023-06-11T12:37:42.780Z" agent="Mozilla/5.0 (Windows NT 10.0; Win64; x64) AppleWebKit/537.36 (KHTML, like Gecko) Chrome/114.0.0.0 Safari/537.36" etag="HK5qUySpSLzjOURXl_85" version="21.3.8" type="device" pages="2">
  <diagram name="페이지-1" id="NZyWrNh_rc1T426QeQfZ">
    <mxGraphModel dx="2157" dy="2286" grid="1" gridSize="10" guides="1" tooltips="1" connect="1" arrows="0" fold="1" page="1" pageScale="1" pageWidth="827" pageHeight="1169" math="0" shadow="0">
      <root>
        <mxCell id="0" />
        <mxCell id="1" parent="0" />
        <mxCell id="X0IeuD4PIzZGFYJ8xIGn-2" value="예약" style="shape=rhombus;perimeter=rhombusPerimeter;whiteSpace=wrap;html=1;align=center;fontSize=20;fillColor=#fad9d5;strokeColor=#ae4132;fontStyle=1" parent="1" vertex="1">
          <mxGeometry x="168.13" y="680" width="161.25" height="160" as="geometry" />
        </mxCell>
        <mxCell id="X0IeuD4PIzZGFYJ8xIGn-16" value="회원 아이디" style="ellipse;whiteSpace=wrap;html=1;align=center;fontStyle=4;fontSize=20;fillColor=#d0cee2;strokeColor=#56517e;" parent="1" vertex="1">
          <mxGeometry x="-20" y="360" width="120" height="60" as="geometry" />
        </mxCell>
        <mxCell id="X0IeuD4PIzZGFYJ8xIGn-17" value="성명" style="ellipse;whiteSpace=wrap;html=1;align=center;fontSize=20;fillColor=#d0cee2;strokeColor=#56517e;" parent="1" vertex="1">
          <mxGeometry x="-20" y="450" width="120" height="60" as="geometry" />
        </mxCell>
        <mxCell id="X0IeuD4PIzZGFYJ8xIGn-19" value="" style="endArrow=none;html=1;rounded=0;exitX=1;exitY=0.5;exitDx=0;exitDy=0;entryX=0;entryY=0.5;entryDx=0;entryDy=0;" parent="1" source="X0IeuD4PIzZGFYJ8xIGn-16" edge="1">
          <mxGeometry relative="1" as="geometry">
            <mxPoint x="160" y="405" as="sourcePoint" />
            <mxPoint x="177.50000000000023" y="480.0000000000002" as="targetPoint" />
          </mxGeometry>
        </mxCell>
        <mxCell id="X0IeuD4PIzZGFYJ8xIGn-20" value="" style="endArrow=none;html=1;rounded=0;exitX=1;exitY=0.5;exitDx=0;exitDy=0;entryX=0;entryY=0.5;entryDx=0;entryDy=0;" parent="1" source="X0IeuD4PIzZGFYJ8xIGn-17" edge="1">
          <mxGeometry relative="1" as="geometry">
            <mxPoint x="60" y="365" as="sourcePoint" />
            <mxPoint x="177.50000000000023" y="480.0000000000002" as="targetPoint" />
          </mxGeometry>
        </mxCell>
        <mxCell id="X0IeuD4PIzZGFYJ8xIGn-23" value="비밀번호" style="ellipse;whiteSpace=wrap;html=1;align=center;fontSize=20;fillColor=#d0cee2;strokeColor=#56517e;" parent="1" vertex="1">
          <mxGeometry x="-20" y="540" width="120" height="60" as="geometry" />
        </mxCell>
        <mxCell id="X0IeuD4PIzZGFYJ8xIGn-24" value="" style="endArrow=none;html=1;rounded=0;exitX=1;exitY=0.5;exitDx=0;exitDy=0;entryX=0;entryY=0.5;entryDx=0;entryDy=0;" parent="1" source="X0IeuD4PIzZGFYJ8xIGn-23" edge="1">
          <mxGeometry relative="1" as="geometry">
            <mxPoint x="60" y="420" as="sourcePoint" />
            <mxPoint x="177.50000000000023" y="480.0000000000002" as="targetPoint" />
          </mxGeometry>
        </mxCell>
        <mxCell id="X0IeuD4PIzZGFYJ8xIGn-28" value="비행기" style="whiteSpace=wrap;html=1;align=center;fontSize=25;fontStyle=1;labelBorderColor=none;fillColor=#b0e3e6;strokeColor=#0e8088;" parent="1" vertex="1">
          <mxGeometry x="183.75" y="940" width="130" height="110" as="geometry" />
        </mxCell>
        <mxCell id="X0IeuD4PIzZGFYJ8xIGn-29" value="회원" style="whiteSpace=wrap;html=1;align=center;fontSize=25;fontStyle=1;labelBorderColor=none;fillColor=#b0e3e6;strokeColor=#0e8088;" parent="1" vertex="1">
          <mxGeometry x="177.5" y="410" width="142.5" height="130" as="geometry" />
        </mxCell>
        <mxCell id="X0IeuD4PIzZGFYJ8xIGn-30" value="" style="edgeStyle=elbowEdgeStyle;fontSize=12;html=1;endArrow=ERzeroToOne;endFill=1;entryX=0.5;entryY=1;entryDx=0;entryDy=0;exitX=0.5;exitY=0;exitDx=0;exitDy=0;horizontal=0;verticalAlign=bottom;align=left;fontStyle=7;rounded=0;startArrow=none;startFill=0;elbow=vertical;strokeWidth=3;" parent="1" source="X0IeuD4PIzZGFYJ8xIGn-2" target="X0IeuD4PIzZGFYJ8xIGn-29" edge="1">
          <mxGeometry width="100" height="100" relative="1" as="geometry">
            <mxPoint x="220" y="685" as="sourcePoint" />
            <mxPoint x="320" y="585" as="targetPoint" />
          </mxGeometry>
        </mxCell>
        <mxCell id="X0IeuD4PIzZGFYJ8xIGn-31" value="" style="edgeStyle=elbowEdgeStyle;fontSize=12;html=1;endArrow=ERone;endFill=1;rounded=0;exitX=0.5;exitY=1;exitDx=0;exitDy=0;entryX=0.5;entryY=0;entryDx=0;entryDy=0;strokeWidth=3;" parent="1" source="X0IeuD4PIzZGFYJ8xIGn-2" target="X0IeuD4PIzZGFYJ8xIGn-28" edge="1">
          <mxGeometry width="100" height="100" relative="1" as="geometry">
            <mxPoint x="490" y="860" as="sourcePoint" />
            <mxPoint x="390" y="960" as="targetPoint" />
          </mxGeometry>
        </mxCell>
        <mxCell id="X0IeuD4PIzZGFYJ8xIGn-32" value="보유" style="shape=rhombus;perimeter=rhombusPerimeter;whiteSpace=wrap;html=1;align=center;fontSize=20;fillColor=#fad9d5;strokeColor=#ae4132;fontStyle=1" parent="1" vertex="1">
          <mxGeometry x="440" y="400" width="150" height="147.5" as="geometry" />
        </mxCell>
        <mxCell id="X0IeuD4PIzZGFYJ8xIGn-34" value="" style="fontSize=12;html=1;endArrow=ERzeroToOne;endFill=1;entryX=1;entryY=0.5;entryDx=0;entryDy=0;exitX=0;exitY=0.5;exitDx=0;exitDy=0;horizontal=0;verticalAlign=bottom;align=left;fontStyle=7;rounded=0;startArrow=none;startFill=0;elbow=vertical;strokeWidth=3;" parent="1" source="X0IeuD4PIzZGFYJ8xIGn-32" target="X0IeuD4PIzZGFYJ8xIGn-29" edge="1">
          <mxGeometry width="100" height="100" relative="1" as="geometry">
            <mxPoint x="391.25" y="515" as="sourcePoint" />
            <mxPoint x="420.25" y="370" as="targetPoint" />
          </mxGeometry>
        </mxCell>
        <mxCell id="X0IeuD4PIzZGFYJ8xIGn-36" value="신용카드" style="whiteSpace=wrap;html=1;align=center;fontSize=25;fontStyle=1;labelBorderColor=none;fillColor=#b0e3e6;strokeColor=#0e8088;" parent="1" vertex="1">
          <mxGeometry x="681" y="408.75" width="146" height="130" as="geometry" />
        </mxCell>
        <mxCell id="X0IeuD4PIzZGFYJ8xIGn-37" value="" style="edgeStyle=entityRelationEdgeStyle;fontSize=12;html=1;endArrow=ERoneToMany;rounded=0;entryX=0;entryY=0.5;entryDx=0;entryDy=0;strokeWidth=3;" parent="1" source="X0IeuD4PIzZGFYJ8xIGn-32" target="X0IeuD4PIzZGFYJ8xIGn-36" edge="1">
          <mxGeometry width="100" height="100" relative="1" as="geometry">
            <mxPoint x="580" y="740" as="sourcePoint" />
            <mxPoint x="680" y="640" as="targetPoint" />
          </mxGeometry>
        </mxCell>
        <mxCell id="X0IeuD4PIzZGFYJ8xIGn-38" value="신용카드번호" style="ellipse;whiteSpace=wrap;html=1;align=center;fontStyle=4;fontSize=20;fillColor=#d0cee2;strokeColor=#56517e;" parent="1" vertex="1">
          <mxGeometry x="900" y="370" width="130" height="70" as="geometry" />
        </mxCell>
        <mxCell id="X0IeuD4PIzZGFYJ8xIGn-39" value="" style="endArrow=none;html=1;rounded=0;exitX=0;exitY=0.5;exitDx=0;exitDy=0;entryX=1;entryY=0.5;entryDx=0;entryDy=0;" parent="1" source="X0IeuD4PIzZGFYJ8xIGn-38" target="X0IeuD4PIzZGFYJ8xIGn-36" edge="1">
          <mxGeometry relative="1" as="geometry">
            <mxPoint x="1030" y="390" as="sourcePoint" />
            <mxPoint x="839.9999999999998" y="482.5" as="targetPoint" />
          </mxGeometry>
        </mxCell>
        <mxCell id="X0IeuD4PIzZGFYJ8xIGn-40" value="성명" style="ellipse;whiteSpace=wrap;html=1;align=center;fontSize=20;fillColor=#d0cee2;strokeColor=#56517e;" parent="1" vertex="1">
          <mxGeometry x="900" y="500" width="130" height="60" as="geometry" />
        </mxCell>
        <mxCell id="X0IeuD4PIzZGFYJ8xIGn-41" value="" style="endArrow=none;html=1;rounded=0;exitX=0;exitY=0.5;exitDx=0;exitDy=0;entryX=1;entryY=0.5;entryDx=0;entryDy=0;" parent="1" source="X0IeuD4PIzZGFYJ8xIGn-40" target="X0IeuD4PIzZGFYJ8xIGn-36" edge="1">
          <mxGeometry relative="1" as="geometry">
            <mxPoint x="930" y="375" as="sourcePoint" />
            <mxPoint x="1048" y="490" as="targetPoint" />
          </mxGeometry>
        </mxCell>
        <mxCell id="X0IeuD4PIzZGFYJ8xIGn-42" value="비행기 번호" style="ellipse;whiteSpace=wrap;html=1;align=center;fontStyle=4;fontSize=20;fillColor=#d0cee2;strokeColor=#56517e;" parent="1" vertex="1">
          <mxGeometry x="-15" y="870" width="110" height="60" as="geometry" />
        </mxCell>
        <mxCell id="X0IeuD4PIzZGFYJ8xIGn-43" value="출발 시간" style="ellipse;whiteSpace=wrap;html=1;align=center;fontSize=20;fillColor=#d0cee2;strokeColor=#56517e;" parent="1" vertex="1">
          <mxGeometry x="-15" y="970" width="110" height="55" as="geometry" />
        </mxCell>
        <mxCell id="X0IeuD4PIzZGFYJ8xIGn-44" value="" style="endArrow=none;html=1;rounded=0;exitX=1;exitY=0.5;exitDx=0;exitDy=0;entryX=0;entryY=0.5;entryDx=0;entryDy=0;" parent="1" source="X0IeuD4PIzZGFYJ8xIGn-42" target="X0IeuD4PIzZGFYJ8xIGn-28" edge="1">
          <mxGeometry relative="1" as="geometry">
            <mxPoint x="160" y="650" as="sourcePoint" />
            <mxPoint x="178" y="725" as="targetPoint" />
          </mxGeometry>
        </mxCell>
        <mxCell id="X0IeuD4PIzZGFYJ8xIGn-45" value="" style="endArrow=none;html=1;rounded=0;exitX=1;exitY=0.5;exitDx=0;exitDy=0;entryX=0;entryY=0.5;entryDx=0;entryDy=0;" parent="1" source="X0IeuD4PIzZGFYJ8xIGn-43" target="X0IeuD4PIzZGFYJ8xIGn-28" edge="1">
          <mxGeometry relative="1" as="geometry">
            <mxPoint x="60" y="610" as="sourcePoint" />
            <mxPoint x="178" y="725" as="targetPoint" />
          </mxGeometry>
        </mxCell>
        <mxCell id="X0IeuD4PIzZGFYJ8xIGn-46" value="출발 날짜" style="ellipse;whiteSpace=wrap;html=1;align=center;fontSize=20;fillColor=#d0cee2;strokeColor=#56517e;" parent="1" vertex="1">
          <mxGeometry x="-17.5" y="1070" width="115" height="60" as="geometry" />
        </mxCell>
        <mxCell id="X0IeuD4PIzZGFYJ8xIGn-47" value="" style="endArrow=none;html=1;rounded=0;exitX=1;exitY=0.5;exitDx=0;exitDy=0;entryX=0;entryY=0.5;entryDx=0;entryDy=0;" parent="1" source="X0IeuD4PIzZGFYJ8xIGn-46" target="X0IeuD4PIzZGFYJ8xIGn-28" edge="1">
          <mxGeometry relative="1" as="geometry">
            <mxPoint x="60" y="665" as="sourcePoint" />
            <mxPoint x="178" y="725" as="targetPoint" />
          </mxGeometry>
        </mxCell>
        <mxCell id="X0IeuD4PIzZGFYJ8xIGn-49" value="존재" style="shape=rhombus;double=1;perimeter=rhombusPerimeter;whiteSpace=wrap;html=1;align=center;fillColor=#fad9d5;strokeColor=#ae4132;fontSize=20;fontStyle=1" parent="1" vertex="1">
          <mxGeometry x="437.5" y="940" width="155" height="110" as="geometry" />
        </mxCell>
        <mxCell id="X0IeuD4PIzZGFYJ8xIGn-50" value="" style="edgeStyle=entityRelationEdgeStyle;fontSize=12;html=1;endArrow=ERone;endFill=1;rounded=0;entryX=1;entryY=0.5;entryDx=0;entryDy=0;exitX=0;exitY=0.5;exitDx=0;exitDy=0;strokeWidth=3;" parent="1" source="X0IeuD4PIzZGFYJ8xIGn-49" target="X0IeuD4PIzZGFYJ8xIGn-28" edge="1">
          <mxGeometry width="100" height="100" relative="1" as="geometry">
            <mxPoint x="350" y="960" as="sourcePoint" />
            <mxPoint x="450" y="860" as="targetPoint" />
          </mxGeometry>
        </mxCell>
        <mxCell id="X0IeuD4PIzZGFYJ8xIGn-51" value="" style="edgeStyle=entityRelationEdgeStyle;fontSize=12;html=1;endArrow=ERoneToMany;rounded=0;exitX=1;exitY=0.5;exitDx=0;exitDy=0;entryX=0;entryY=0.5;entryDx=0;entryDy=0;dashed=1;strokeWidth=3;" parent="1" source="X0IeuD4PIzZGFYJ8xIGn-49" target="X0IeuD4PIzZGFYJ8xIGn-52" edge="1">
          <mxGeometry width="100" height="100" relative="1" as="geometry">
            <mxPoint x="670" y="1020" as="sourcePoint" />
            <mxPoint x="720" y="1000" as="targetPoint" />
          </mxGeometry>
        </mxCell>
        <mxCell id="X0IeuD4PIzZGFYJ8xIGn-52" value="좌석" style="whiteSpace=wrap;html=1;align=center;fontSize=25;fontStyle=1;labelBorderColor=none;fillColor=#b0e3e6;strokeColor=#0e8088;" parent="1" vertex="1">
          <mxGeometry x="670" y="930" width="146" height="130" as="geometry" />
        </mxCell>
        <mxCell id="X0IeuD4PIzZGFYJ8xIGn-53" value="좌석 번호" style="ellipse;whiteSpace=wrap;html=1;align=center;fontStyle=4;fontSize=20;fillColor=#d0cee2;strokeColor=#56517e;" parent="1" vertex="1">
          <mxGeometry x="900" y="910" width="130" height="70" as="geometry" />
        </mxCell>
        <mxCell id="X0IeuD4PIzZGFYJ8xIGn-54" value="" style="endArrow=none;html=1;rounded=0;exitX=0;exitY=0.5;exitDx=0;exitDy=0;entryX=1;entryY=0.5;entryDx=0;entryDy=0;" parent="1" source="X0IeuD4PIzZGFYJ8xIGn-53" target="X0IeuD4PIzZGFYJ8xIGn-52" edge="1">
          <mxGeometry relative="1" as="geometry">
            <mxPoint x="1079" y="923.13" as="sourcePoint" />
            <mxPoint x="888.9999999999998" y="1015.63" as="targetPoint" />
          </mxGeometry>
        </mxCell>
        <mxCell id="X0IeuD4PIzZGFYJ8xIGn-55" value="등급" style="ellipse;whiteSpace=wrap;html=1;align=center;fontSize=20;fillColor=#d0cee2;strokeColor=#56517e;" parent="1" vertex="1">
          <mxGeometry x="900" y="1000" width="130" height="60" as="geometry" />
        </mxCell>
        <mxCell id="X0IeuD4PIzZGFYJ8xIGn-56" value="" style="endArrow=none;html=1;rounded=0;exitX=0;exitY=0.5;exitDx=0;exitDy=0;entryX=1;entryY=0.5;entryDx=0;entryDy=0;" parent="1" source="X0IeuD4PIzZGFYJ8xIGn-55" target="X0IeuD4PIzZGFYJ8xIGn-52" edge="1">
          <mxGeometry relative="1" as="geometry">
            <mxPoint x="979" y="908.13" as="sourcePoint" />
            <mxPoint x="1097" y="1023.13" as="targetPoint" />
          </mxGeometry>
        </mxCell>
        <mxCell id="X0IeuD4PIzZGFYJ8xIGn-57" value="" style="edgeStyle=elbowEdgeStyle;fontSize=12;html=1;endArrow=ERzeroToOne;endFill=1;entryX=0.5;entryY=1;entryDx=0;entryDy=0;exitX=0.5;exitY=0;exitDx=0;exitDy=0;horizontal=0;verticalAlign=bottom;align=left;fontStyle=7;rounded=0;startArrow=none;startFill=0;elbow=vertical;strokeWidth=3;" parent="1" edge="1">
          <mxGeometry width="100" height="100" relative="1" as="geometry">
            <mxPoint x="247.85" y="408.75" as="sourcePoint" />
            <mxPoint x="247.85" y="268.75" as="targetPoint" />
          </mxGeometry>
        </mxCell>
        <mxCell id="X0IeuD4PIzZGFYJ8xIGn-58" value="생성" style="shape=rhombus;perimeter=rhombusPerimeter;whiteSpace=wrap;html=1;align=center;fontSize=20;fillColor=#fad9d5;strokeColor=#ae4132;fontStyle=1" parent="1" vertex="1">
          <mxGeometry x="168.12" y="120" width="161.25" height="150" as="geometry" />
        </mxCell>
        <mxCell id="X0IeuD4PIzZGFYJ8xIGn-59" value="마일리지" style="whiteSpace=wrap;html=1;align=center;fontSize=25;fontStyle=1;labelBorderColor=none;fillColor=#b0e3e6;strokeColor=#0e8088;" parent="1" vertex="1">
          <mxGeometry x="177.48999999999998" y="-120" width="142.5" height="130" as="geometry" />
        </mxCell>
        <mxCell id="X0IeuD4PIzZGFYJ8xIGn-63" value="이메일 주소" style="ellipse;whiteSpace=wrap;html=1;align=center;fontSize=20;fillColor=#d0cee2;strokeColor=#56517e;" parent="1" vertex="1">
          <mxGeometry x="-25" y="640" width="120" height="60" as="geometry" />
        </mxCell>
        <mxCell id="R2j0oWUdNMGbaGaLVdNO-1" value="마일리지 번호" style="ellipse;whiteSpace=wrap;html=1;align=center;fontStyle=4;fontSize=20;fillColor=#d0cee2;strokeColor=#56517e;" parent="1" vertex="1">
          <mxGeometry x="392.99" y="-160" width="130" height="70" as="geometry" />
        </mxCell>
        <mxCell id="R2j0oWUdNMGbaGaLVdNO-2" value="" style="endArrow=none;html=1;rounded=0;exitX=0;exitY=0.5;exitDx=0;exitDy=0;entryX=1;entryY=0.5;entryDx=0;entryDy=0;" parent="1" source="R2j0oWUdNMGbaGaLVdNO-1" edge="1">
          <mxGeometry relative="1" as="geometry">
            <mxPoint x="522.99" y="-140" as="sourcePoint" />
            <mxPoint x="319.99" y="-56" as="targetPoint" />
          </mxGeometry>
        </mxCell>
        <mxCell id="R2j0oWUdNMGbaGaLVdNO-3" value="누적 마일리지" style="ellipse;whiteSpace=wrap;html=1;align=center;fontSize=20;fillColor=#d0cee2;strokeColor=#56517e;" parent="1" vertex="1">
          <mxGeometry x="392.99" y="-85" width="130" height="60" as="geometry" />
        </mxCell>
        <mxCell id="R2j0oWUdNMGbaGaLVdNO-4" value="" style="endArrow=none;html=1;rounded=0;exitX=0;exitY=0.5;exitDx=0;exitDy=0;entryX=1;entryY=0.5;entryDx=0;entryDy=0;" parent="1" source="R2j0oWUdNMGbaGaLVdNO-3" target="X0IeuD4PIzZGFYJ8xIGn-59" edge="1">
          <mxGeometry relative="1" as="geometry">
            <mxPoint x="423" y="-149" as="sourcePoint" />
            <mxPoint x="360" y="-60" as="targetPoint" />
          </mxGeometry>
        </mxCell>
        <mxCell id="R2j0oWUdNMGbaGaLVdNO-5" value="사용한 &lt;br&gt;마일리지" style="ellipse;whiteSpace=wrap;html=1;align=center;fontSize=20;fillColor=#d0cee2;strokeColor=#56517e;" parent="1" vertex="1">
          <mxGeometry x="392.99" y="-10" width="127.01" height="60" as="geometry" />
        </mxCell>
        <mxCell id="R2j0oWUdNMGbaGaLVdNO-6" value="" style="endArrow=none;html=1;rounded=0;exitX=0;exitY=0.5;exitDx=0;exitDy=0;entryX=1;entryY=0.5;entryDx=0;entryDy=0;" parent="1" source="R2j0oWUdNMGbaGaLVdNO-5" target="X0IeuD4PIzZGFYJ8xIGn-59" edge="1">
          <mxGeometry relative="1" as="geometry">
            <mxPoint x="432.37" y="-79" as="sourcePoint" />
            <mxPoint x="329.37" y="20" as="targetPoint" />
          </mxGeometry>
        </mxCell>
        <mxCell id="R2j0oWUdNMGbaGaLVdNO-7" value="" style="edgeStyle=entityRelationEdgeStyle;fontSize=12;html=1;endArrow=ERoneToMany;rounded=0;exitX=1;exitY=0.5;exitDx=0;exitDy=0;entryX=0;entryY=1;entryDx=0;entryDy=0;" parent="1" source="X0IeuD4PIzZGFYJ8xIGn-63" target="X0IeuD4PIzZGFYJ8xIGn-29" edge="1">
          <mxGeometry width="100" height="100" relative="1" as="geometry">
            <mxPoint x="95" y="680" as="sourcePoint" />
            <mxPoint x="180" y="480" as="targetPoint" />
          </mxGeometry>
        </mxCell>
        <mxCell id="R2j0oWUdNMGbaGaLVdNO-11" value="" style="edgeStyle=elbowEdgeStyle;fontSize=12;html=1;endArrow=ERone;endFill=1;rounded=0;exitX=0.5;exitY=0;exitDx=0;exitDy=0;entryX=0.5;entryY=1;entryDx=0;entryDy=0;strokeWidth=6;" parent="1" source="X0IeuD4PIzZGFYJ8xIGn-58" target="X0IeuD4PIzZGFYJ8xIGn-59" edge="1">
          <mxGeometry width="100" height="100" relative="1" as="geometry">
            <mxPoint x="380" y="260" as="sourcePoint" />
            <mxPoint x="480" y="160" as="targetPoint" />
          </mxGeometry>
        </mxCell>
      </root>
    </mxGraphModel>
  </diagram>
  <diagram id="fl-fzpiHtl2EbuYcFRY6" name="페이지-2">
    <mxGraphModel dx="978" dy="670" grid="1" gridSize="10" guides="1" tooltips="1" connect="1" arrows="1" fold="1" page="1" pageScale="1" pageWidth="827" pageHeight="1169" math="0" shadow="0">
      <root>
        <mxCell id="0" />
        <mxCell id="1" parent="0" />
      </root>
    </mxGraphModel>
  </diagram>
</mxfile>
